HIERARCHY
ROOT Hips
{
 OFFSET 0.000000 0.000000 0.000000
 CHANNELS 6 Xposition Yposition Zposition Yrotation Xrotation Zrotation
 JOINT Chest
 {
  OFFSET 0.000000 9.585900 0.002600
  CHANNELS 3 Yrotation Xrotation Zrotation
  JOINT Chest2
  {
   OFFSET 0.000000 9.601200 -0.005300
   CHANNELS 3 Yrotation Xrotation Zrotation
   JOINT Chest3
   {
    OFFSET 0.000000 9.561800 0.000000
    CHANNELS 3 Yrotation Xrotation Zrotation
    JOINT Chest4
    {
     OFFSET 0.000000 9.552100 0.000000
     CHANNELS 3 Yrotation Xrotation Zrotation
     JOINT Neck
     {
      OFFSET 0.000000 14.453000 0.000000
      CHANNELS 3 Yrotation Xrotation Zrotation
      JOINT Head
      {
       OFFSET 0.000000 8.936500 -0.011300
       CHANNELS 3 Yrotation Xrotation Zrotation
       End Site
       {
        OFFSET 0.000000 17.073600 -0.006000
       }
      }
     }
     JOINT RightCollar
     {
      OFFSET -2.921100 9.558500 0.000000
      CHANNELS 3 Yrotation Xrotation Zrotation
      JOINT RightShoulder
      {
       OFFSET -13.519700 0.000000 0.000000
       CHANNELS 3 Yrotation Xrotation Zrotation
       JOINT RightElbow
       {
        OFFSET 0.000000 -29.696600 0.000000
        CHANNELS 3 Yrotation Xrotation Zrotation
        JOINT RightWrist
        {
         OFFSET 0.000000 -24.004700 0.000000
         CHANNELS 3 Yrotation Xrotation Zrotation
         End Site
         {
          OFFSET 0.000000 -17.728500 0.000000
         }
        }
       }
      }
     }
     JOINT LeftCollar
     {
      OFFSET 2.921100 9.558500 0.000000
      CHANNELS 3 Yrotation Xrotation Zrotation
      JOINT LeftShoulder
      {
       OFFSET 13.519700 0.000000 0.000000
       CHANNELS 3 Yrotation Xrotation Zrotation
       JOINT LeftElbow
       {
        OFFSET 0.000000 -29.696600 0.000000
        CHANNELS 3 Yrotation Xrotation Zrotation
        JOINT LeftWrist
        {
         OFFSET 0.000000 -24.004700 0.000000
         CHANNELS 3 Yrotation Xrotation Zrotation
         End Site
         {
          OFFSET 0.000000 -17.728500 0.000000
         }
        }
       }
      }
     }
    }
   }
  }
 }
 JOINT RightHip
 {
  OFFSET -7.771700 -0.012900 -0.001300
  CHANNELS 3 Yrotation Xrotation Zrotation
  JOINT RightKnee
  {
   OFFSET 0.000000 -40.869800 0.001200
   CHANNELS 3 Yrotation Xrotation Zrotation
   JOINT RightAnkle
   {
    OFFSET 0.000000 -39.717900 0.002100
    CHANNELS 3 Yrotation Xrotation Zrotation
    JOINT RightToe
    {
     OFFSET 0.000000 -4.965400 11.033500
     CHANNELS 3 Yrotation Xrotation Zrotation
     End Site
     {
      OFFSET 0.000000 -1.423100 5.872300
     }
    }
   }
  }
 }
 JOINT LeftHip
 {
  OFFSET 7.771700 -0.012900 -0.001300
  CHANNELS 3 Yrotation Xrotation Zrotation
  JOINT LeftKnee
  {
   OFFSET 0.000000 -40.869800 0.001200
   CHANNELS 3 Yrotation Xrotation Zrotation
   JOINT LeftAnkle
   {
    OFFSET 0.000000 -39.717900 0.002100
    CHANNELS 3 Yrotation Xrotation Zrotation
    JOINT LeftToe
    {
     OFFSET 0.000000 -4.965400 11.033500
     CHANNELS 3 Yrotation Xrotation Zrotation
     End Site
     {
      OFFSET 0.000000 -1.423100 5.872300
     }
    }
   }
  }
 }
}
MOTION
Frames: 15
Frame Time: 0.008333
0.000000 85.388000 0.000000 0.000000 -5.767877 0.000000 0.000000 11.653817 0.000000 0.000000 -5.885947 0.000000 0.000000 -0.000000 0.000000 0.000000 -0.000000 0.000000 0.000000 12.528835 0.000000 0.000000 0.711642 0.000000 0.000000 -0.000000 0.000000 0.000000 0.000000 -90.000000 0.000000 -2.309062 0.000000 0.000000 2.309062 0.000000 0.000000 -0.000000 0.000000 0.000000 -0.000000 90.000000 0.000000 -2.309062 0.000000 0.000000 2.309062 0.000000 0.000000 8.520406 0.000000 0.000000 1.905762 0.000000 -0.000000 -4.658285 0.000000 0.000000 -0.000000 0.000000 0.000000 8.520406 0.000000 0.000000 1.905762 0.000000 -0.000000 -4.658285 0.000000 0.000000 -0.000000 0.000000
-67.437832 63.313023 12.531437 163.646369 -54.625616 -2.980719 5.927334 25.232387 4.334409 0.879394 4.167057 0.348540 1.425246 6.675027 0.595458 4.859991 20.776178 2.500619 9.941910 20.426693 3.076818 17.216503 2.291832 2.564809 4.401405 6.687364 5.140120 4.316761 -14.726309 -16.021309 -105.477664 -62.383424 142.002641 18.983323 1.929489 1.207793 -13.815992 -0.118867 -1.327154 -14.676016 -37.379880 29.336775 20.724463 -45.214341 -34.512576 9.153544 6.527610 -4.262973 -4.915031 -5.484119 10.451309 -25.160300 73.876879 -23.024999 1.062825 -12.845589 -2.666764 -0.272179 0.667749 -0.233418 -2.409620 -12.196412 1.600983 14.118902 62.129619 7.564136 -2.304822 -6.002980 0.837949 -0.360736 -0.740051 -0.331157
-67.417290 63.306066 12.533222 163.562007 -54.596536 -2.966108 5.995169 25.228888 4.389619 0.889598 4.208072 0.352105 1.426026 6.621311 0.593431 4.910064 20.811618 2.531875 9.921540 20.381556 2.970902 17.172079 2.207502 2.502534 4.332987 6.687270 5.105828 4.209011 -14.654766 -15.958400 -105.544799 -62.377816 142.061647 18.962942 1.923451 1.182088 -13.835213 -0.172046 -1.312890 -14.802138 -37.408880 29.376963 20.842856 -45.426274 -34.635661 9.204126 6.395627 -4.222572 -4.916449 -5.515042 10.469609 -25.109958 73.902364 -22.931954 1.082732 -12.856563 -2.707644 -0.262624 0.675817 -0.234340 -2.427199 -12.244232 1.634272 14.124530 62.173515 7.606343 -2.260173 -6.010851 0.819224 -0.358323 -0.750978 -0.343977
-67.397769 63.300521 12.532235 163.535995 -54.581154 -2.981468 6.030859 25.280289 4.421969 0.895219 4.168204 0.358275 1.429921 6.610986 0.597825 4.927395 20.815696 2.542050 9.925602 20.365978 2.925765 17.141510 2.132453 2.403653 4.339210 6.741981 5.117370 4.089351 -14.609385 -15.935785 -105.600137 -62.373895 142.102870 18.948567 1.916893 1.158806 -13.802138 -0.187087 -1.290123 -14.973765 -37.420708 29.471014 21.005954 -45.616823 -34.815267 9.238671 6.291204 -4.218625 -4.970642 -5.524055 10.435100 -25.010363 73.936555 -22.758908 1.105840 -12.858893 -2.802855 -0.222126 0.667149 -0.219133 -2.472105 -12.274432 1.649286 14.140521 62.208343 7.646877 -2.196658 -6.018767 0.793813 -0.370579 -0.762136 -0.361455
-67.380910 63.291755 12.531993 163.499005 -54.547146 -2.971338 6.060632 25.262078 4.437942 0.896033 4.160432 0.360238 1.463443 6.689706 0.607413 4.964476 20.795705 2.567785 9.886181 20.306609 2.868507 17.113074 2.052620 2.312595 4.313590 6.720185 5.127575 3.976380 -14.539305 -15.926301 -105.640145 -62.373678 142.123039 18.942125 1.911985 1.143427 -13.808456 -0.253475 -1.258483 -15.164440 -37.408117 29.604715 21.178259 -45.798326 -35.028846 9.267508 6.206119 -4.239929 -5.000689 -5.559469 10.412764 -24.899074 73.967571 -22.624015 1.154320 -12.867429 -2.822026 -0.244475 0.671663 -0.250546 -2.507635 -12.324044 1.653515 14.197103 62.235694 7.703716 -2.136952 -6.021400 0.791445 -0.388939 -0.763950 -0.352474
-67.354232 63.285634 12.533298 163.435325 -54.534001 -3.000113 6.137882 25.256396 4.524393 0.905919 4.184228 0.362254 1.475236 6.697528 0.612582 5.016623 20.816212 2.598102 9.837485 20.243715 2.822499 17.096995 1.978351 2.222626 4.266124 6.666962 5.125717 3.892722 -14.446592 -15.906575 -105.668377 -62.378103 142.132788 18.941318 1.912522 1.130261 -13.808642 -0.323864 -1.215566 -15.340735 -37.390303 29.737889 21.297348 -45.983420 -35.246916 9.295515 6.137261 -4.268471 -5.015068 -5.570309 10.442038 -24.815899 73.999102 -22.482939 1.219511 -12.879688 -2.879417 -0.264755 0.677838 -0.270719 -2.539710 -12.354530 1.708175 14.197191 62.279640 7.743159 -2.030437 -6.020595 0.786982 -0.424449 -0.780758 -0.369676
-67.335882 63.279236 12.532166 163.374733 -54.522493 -2.984464 6.194546 25.270768 4.556444 0.918362 4.228974 0.361441 1.466344 6.633107 0.619583 5.068141 20.861105 2.625317 9.789116 20.189050 2.795966 17.094360 1.944787 2.175895 4.284313 6.654253 5.156449 3.786943 -14.392352 -15.919572 -105.730687 -62.378492 142.190239 18.933795 1.939658 1.104421 -13.781792 -0.382094 -1.165001 -15.459249 -37.388402 29.835499 21.310657 -46.181325 -35.444826 9.313604 6.083068 -4.300611 -5.000533 -5.584409 10.449165 -24.832244 74.012197 -22.430464 1.179508 -12.881962 -2.935528 -0.190022 0.676135 -0.241663 -2.550579 -12.380686 1.722448 14.173357 62.322845 7.763340 -2.013461 -6.055815 0.757442 -0.384572 -0.762614 -0.350476
-67.318320 63.273753 12.530782 163.348540 -54.517799 -2.999158 6.224572 25.314071 4.578834 0.926646 4.195348 0.373690 1.483991 6.662714 0.625675 5.098398 20.869708 2.647951 9.776800 20.145990 2.751502 17.078885 1.859515 2.085917 4.314952 6.639586 5.190576 3.692812 -14.346173 -15.945946 -105.743822 -62.387049 142.181591 18.959829 1.900579 1.116570 -13.742835 -0.438422 -1.109680 -15.489734 -37.414210 29.881818 21.195321 -46.396773 -35.604664 9.306029 6.038508 -4.342720 -5.006478 -5.590019 10.460665 -24.830384 74.027496 -22.381314 1.172685 -12.886055 -2.950205 -0.163005 0.677419 -0.243597 -2.598066 -12.400050 1.739667 14.201382 62.357826 7.805884 -1.967864 -6.065477 0.751193 -0.395716 -0.763925 -0.350518
-67.302014 63.264321 12.532961 163.276261 -54.484700 -2.983751 6.278644 25.313800 4.609655 0.934854 4.175730 0.379876 1.502798 6.728395 0.633380 5.118439 20.839615 2.667617 9.800643 20.125966 2.699022 17.042556 1.758755 2.016682 4.343527 6.616536 5.215291 3.622373 -14.317882 -15.976688 -105.669741 -62.406828 142.069863 18.993654 1.844467 1.133552 -13.692632 -0.490701 -1.054827 -15.433422 -37.461468 29.880482 20.953997 -46.636597 -35.712316 9.269853 6.002849 -4.392326 -5.002888 -5.627888 10.471484 -24.777516 74.047757 -22.290743 1.208214 -12.895081 -2.991207 -0.174264 0.691920 -0.230520 -2.638776 -12.450140 1.772296 14.289291 62.390258 7.875150 -1.922221 -6.072974 0.761000 -0.441197 -0.758550 -0.322381
-67.283952 63.257412 12.535083 163.235200 -54.466781 -3.012782 6.323644 25.320339 4.669634 0.946330 4.181013 0.380645 1.507465 6.747728 0.644456 5.138375 20.833570 2.686612 9.793122 20.095611 2.663998 17.040587 1.706227 1.952090 4.384287 6.596210 5.239707 3.561221 -14.330227 -16.020172 -105.556184 -62.426124 141.936129 18.990557 1.923879 1.116777 -13.632589 -0.535326 -1.004675 -15.318915 -37.514213 29.847465 20.611377 -46.909064 -35.757719 9.213735 5.979086 -4.444098 -5.018313 -5.643668 10.497574 -24.715313 74.065027 -22.193806 1.271103 -12.908372 -3.024402 -0.212984 0.711235 -0.228014 -2.674021 -12.478930 1.826330 14.334629 62.415368 7.916895 -1.857099 -6.073393 0.782214 -0.483539 -0.766602 -0.339227
-67.272368 63.251797 12.535176 163.191976 -54.456345 -3.008512 6.349255 25.337788 4.695810 0.944311 4.222283 0.385733 1.523980 6.696738 0.641656 5.155116 20.846306 2.706885 9.792684 20.079282 2.642458 17.044505 1.664751 1.889946 4.438730 6.588490 5.273770 3.496774 -14.291913 -16.065792 -105.534922 -62.434027 141.914107 19.006597 1.957771 1.123307 -13.605676 -0.567213 -0.985861 -15.161940 -37.537940 29.838538 20.198880 -47.219822 -35.729191 9.148318 5.971931 -4.496402 -5.058888 -5.650114 10.464516 -24.528611 74.096543 -21.991328 1.355368 -12.903719 -3.042010 -0.287037 0.716950 -0.220322 -2.671525 -12.497520 1.842983 14.315500 62.438475 7.932627 -1.841754 -6.092995 0.767730 -0.460827 -0.756448 -0.322253
-67.262706 63.248351 12.534386 163.173521 -54.456616 -3.020650 6.351061 25.367227 4.717676 0.952433 4.216789 0.387043 1.537854 6.691552 0.643232 5.157788 20.867363 2.737516 9.787567 20.055520 2.605243 17.056227 1.636194 1.834968 4.505805 6.571931 5.295663 3.449399 -14.260250 -16.122915 -105.487583 -62.442638 141.868772 19.026063 1.963639 1.130667 -13.503630 -0.588138 -0.926155 -15.042572 -37.560814 29.773697 19.744256 -47.573558 -35.618076 9.084115 5.985545 -4.548058 -5.082807 -5.647026 10.460051 -24.437075 74.113071 -21.892721 1.396911 -12.899865 -3.031080 -0.317053 0.714801 -0.253313 -2.725198 -12.509968 1.842350 14.323119 62.467701 7.962806 -1.790434 -6.103384 0.740217 -0.448392 -0.758990 -0.311689
-67.254216 63.240902 12.537753 163.143547 -54.421869 -3.032289 6.368795 25.344437 4.748647 0.959027 4.209542 0.386438 1.509792 6.750449 0.666785 5.179635 20.852788 2.751937 9.771226 20.019025 2.545845 17.074413 1.623486 1.794248 4.579059 6.542342 5.308281 3.462906 -14.189969 -16.189837 -105.534305 -62.459105 141.869682 19.042818 1.964414 1.131157 -13.399436 -0.613324 -0.873232 -14.949338 -37.547514 29.722025 19.270907 -47.971461 -35.428392 9.027564 6.017798 -4.600838 -5.095886 -5.680357 10.467008 -24.400621 74.117724 -21.812739 1.385861 -12.906197 -3.052257 -0.273012 0.726329 -0.265631 -2.823070 -12.564881 1.851154 14.485772 62.493189 8.081069 -1.705050 -6.101654 0.752706 -0.515922 -0.771775 -0.335230
-67.242068 63.233072 12.544394 163.067730 -54.377737 -3.041115 6.429389 25.307665 4.818070 0.949008 4.228641 0.392867 1.507512 6.763961 0.676373 5.193446 20.835820 2.755472 9.772920 20.014387 2.525947 17.076953 1.611740 1.746506 4.655399 6.524713 5.346663 3.456550 -14.171483 -16.258018 -105.539696 -62.479455 141.837772 19.031986 1.991437 1.154858 -13.320986 -0.614101 -0.823476 -14.880276 -37.486994 29.709137 18.788824 -48.401620 -35.166779 8.981492 6.061056 -4.653419 -5.070589 -5.724111 10.525418 -24.424027 74.107604 -21.785820 1.376800 -12.916070 -3.101610 -0.252945 0.753194 -0.199381 -2.843182 -12.619575 1.904646 14.495959 62.518244 8.109379 -1.663232 -6.128902 0.766025 -0.520389 -0.757787 -0.359135
-67.235673 63.228658 12.547772 163.023995 -54.352317 -3.044626 6.442897 25.312817 4.847896 0.935786 4.257008 0.403307 1.529451 6.740156 0.675981 5.202901 20.809529 2.742965 9.797751 20.052415 2.565733 17.056519 1.583743 1.679962 4.734490 6.518486 5.410437 3.463736 -14.155147 -16.326096 -105.426409 -62.524610 141.715749 19.057349 1.970034 1.133909 -13.246245 -0.587303 -0.757676 -14.837819 -37.399065 29.707757 18.296884 -48.841412 -34.841859 8.951542 6.107940 -4.696733 -5.080663 -5.745219 10.536195 -24.357712 74.109484 -21.699361 1.400339 -12.917471 -3.116898 -0.251355 0.763517 -0.211921 -2.869744 -12.654475 1.924028 14.509275 62.537829 8.133725 -1.607233 -6.141093 0.744467 -0.537122 -0.756222 -0.356110
